<svg width="80" height="30" viewBox="0 0 80 30" fill="none" xmlns="http://www.w3.org/2000/svg">
<path d="M16.527 23.5467C16.527 24.2125 16.8267 24.5455 17.426 24.5455C18.0483 24.5455 18.5669 24.4174 18.9819 24.1613L18.809 28.5019C17.7026 29.5006 16.4579 30 15.0748 30C12.4702 30 11.0526 28.886 10.8221 26.6581C9.43906 28.886 7.572 30 5.22087 30C2.8928 30 1.38301 29.411 0.691507 28.233C0.230502 27.4904 0 26.6453 0 25.6978C0 24.7503 0.0691506 23.8796 0.207452 23.0858L2.14367 10.9859H8.02147L6.39643 21.2036C6.32728 21.6645 6.29271 22.1255 6.29271 22.5864C6.29271 23.8156 6.91506 24.4302 8.15978 24.4302C9.19704 24.4302 10.0268 24.0333 10.6492 23.2394L12.62 10.9859H18.4978L16.5616 23.0858C16.5385 23.2394 16.527 23.3931 16.527 23.5467Z" fill="#222222"/>
<path d="M37.3495 23.5467C37.3495 24.2125 37.6491 24.5455 38.2484 24.5455C38.8708 24.5455 39.3894 24.4174 39.8043 24.1613L39.6314 28.5019C38.525 29.5006 37.2803 30 35.8973 30C33.3618 30 31.9557 28.9757 31.6791 26.927C30.5266 28.9757 28.8324 30 26.5965 30C22.8163 30 20.9262 28.1946 20.9262 24.5839C20.9262 23.9693 20.9838 23.2907 21.0991 22.548L21.8251 18.0538C22.1939 15.749 23.0353 13.9181 24.3491 12.5608C25.686 11.178 27.5301 10.4866 29.8812 10.4866C31.3333 10.4866 32.4859 10.8323 33.3387 11.5237L35.1021 0.307297H41.0144L37.384 23.0858C37.361 23.2394 37.3495 23.3931 37.3495 23.5467ZM27.1152 21.7029C27.0691 21.9334 27.046 22.2535 27.046 22.6633C27.046 23.073 27.2189 23.4827 27.5646 23.8924C27.9104 24.2766 28.4866 24.4686 29.2934 24.4686C30.1232 24.4686 30.8378 24.1101 31.4371 23.3931L32.4743 16.9398C32.2208 16.2996 31.6215 15.9795 30.6764 15.9795C28.9015 15.9795 27.8643 16.927 27.5646 18.822L27.1152 21.7029Z" fill="#222222"/>
<path d="M49.9035 24.5455C50.4337 24.5455 50.9062 24.4174 51.3211 24.1613L51.1482 28.5019C50.0649 29.5006 48.8317 30 47.4487 30C45.3511 30 43.9912 29.4622 43.3688 28.3867C42.9539 27.6697 42.7464 26.9142 42.7464 26.1204C42.7464 25.3009 42.7925 24.5839 42.8847 23.9693L44.9593 10.9859H50.8371L48.9008 23.0858C48.8778 23.2394 48.8663 23.3803 48.8663 23.5083C48.8663 24.1997 49.212 24.5455 49.9035 24.5455ZM45.6508 4.72471C45.6508 3.08579 45.9735 1.89501 46.6189 1.15237C47.2873 0.384123 48.3131 0 49.6961 0C51.6323 0 52.6004 0.947504 52.6004 2.84251C52.6004 4.45583 52.2662 5.6338 51.5977 6.37644C50.9523 7.11908 49.9266 7.4904 48.5205 7.4904C46.6074 7.4904 45.6508 6.5685 45.6508 4.72471Z" fill="#222222"/>
<path d="M70.7344 29.4622H64.3033L61.8485 24.1229L57.6995 29.4622H51.2684L58.7367 20.0128L54.2419 10.717H60.7767L63.1278 15.9795L67.1731 10.717H73.7078L66.205 20.0512L70.7344 29.4622Z" fill="#222222"/>
<path d="M73.0504 27.2343C73.0504 25.5954 73.3731 24.4046 74.0185 23.662C74.6639 22.8937 75.6896 22.5096 77.0957 22.5096C79.0319 22.5096 80 23.4571 80 25.3521C80 26.9654 79.6658 28.1434 78.9973 28.886C78.3519 29.6287 77.3262 30 75.9201 30C74.0069 30 73.0504 29.0781 73.0504 27.2343Z" fill="#222222"/>
</svg>
