<svg width="24" height="24" viewBox="0 0 24 24" fill="none" xmlns="http://www.w3.org/2000/svg">
<path d="M8.09995 23.9999C10.2526 23.9999 11.9997 22.2079 11.9997 19.9999V15.9999H8.09995C5.94728 15.9999 4.2002 17.7919 4.2002 19.9999C4.2002 22.2079 5.94728 23.9999 8.09995 23.9999Z" fill="white"/>
<path d="M4.2002 12C4.2002 9.792 5.94728 8 8.09995 8H11.9997V16H8.09995C5.94728 16 4.2002 14.208 4.2002 12Z" fill="white"/>
<path d="M4.20215 4C4.20215 1.792 5.94924 0 8.1019 0H12.0016V8H8.1019C5.94924 8 4.20215 6.208 4.20215 4Z" fill="white"/>
<path opacity="0.8" d="M12.001 0H15.9007C18.0534 0 19.8005 1.792 19.8005 4C19.8005 6.208 18.0534 8 15.9007 8H12.001V0Z" fill="white"/>
<path d="M19.8005 11.9999C19.8005 14.2079 18.0534 15.9999 15.9007 15.9999C13.7481 15.9999 12.001 14.2079 12.001 11.9999C12.001 9.79194 13.7481 7.99994 15.9007 7.99994C18.0534 7.99994 19.8005 9.79194 19.8005 11.9999Z" fill="white"/>
</svg>
