<svg width="40" height="40" viewBox="0 0 40 40" fill="none" xmlns="http://www.w3.org/2000/svg">
<rect width="40" height="40" rx="5" fill="#563D7C"/>
<path d="M16.5881 17.6935V12.0288H21.5743C22.0492 12.0288 22.5071 12.0684 22.9481 12.1476C23.389 12.2267 23.7791 12.368 24.1183 12.5716C24.4575 12.7751 24.7289 13.0577 24.9324 13.4196C25.1359 13.7814 25.2377 14.2449 25.2377 14.8103C25.2377 15.8279 24.9324 16.5628 24.3218 17.0151C23.7113 17.4673 22.9311 17.6935 21.9814 17.6935H16.5881ZM11.2627 7.89062V32.1094H22.999C24.0844 32.1094 25.1415 31.9737 26.1705 31.7023C27.1994 31.431 28.1152 31.0126 28.918 30.4473C29.7207 29.882 30.3596 29.1527 30.8344 28.2595C31.3093 27.3662 31.5467 26.3091 31.5467 25.088C31.5467 23.5729 31.1793 22.2783 30.4444 21.2042C29.7094 20.13 28.5957 19.3781 27.1033 18.9485C28.1887 18.4284 29.0084 17.7613 29.5624 16.9472C30.1165 16.1331 30.3935 15.1156 30.3935 13.8944C30.3935 12.7638 30.2069 11.814 29.8338 11.0452C29.4607 10.2763 28.9349 9.66011 28.2565 9.19654C27.5781 8.73296 26.7641 8.39942 25.8143 8.1959C24.8645 7.99238 23.813 7.89062 22.6598 7.89062H11.2627ZM16.5881 27.9712V21.3229H22.3884C23.5417 21.3229 24.4688 21.5886 25.1698 22.12C25.8708 22.6514 26.2213 23.539 26.2213 24.7827C26.2213 25.4159 26.1139 25.936 25.8991 26.343C25.6843 26.75 25.396 27.0723 25.0341 27.3097C24.6723 27.5472 24.254 27.7168 23.7791 27.8185C23.3042 27.9203 22.8067 27.9712 22.2866 27.9712H16.5881Z" fill="white"/>
</svg>
