<svg width="40" height="40" viewBox="0 0 40 40" fill="none" xmlns="http://www.w3.org/2000/svg">
<rect width="40" height="40" rx="5" fill="#323232"/>
<path d="M15.7498 33C16.8769 33 17.9579 32.5434 18.7548 31.7308C19.5518 30.9181 19.9996 29.8159 19.9996 28.6667V24.3333H15.7498C14.6227 24.3333 13.5417 24.7899 12.7447 25.6025C11.9477 26.4152 11.5 27.5174 11.5 28.6667C11.5 29.8159 11.9477 30.9181 12.7447 31.7308C13.5417 32.5434 14.6227 33 15.7498 33Z" fill="#0ACF83"/>
<path d="M11.5 20C11.5 18.8507 11.9477 17.7485 12.7447 16.9359C13.5417 16.1232 14.6227 15.6667 15.7498 15.6667H19.9996V24.3333H15.7498C14.6227 24.3333 13.5417 23.8768 12.7447 23.0641C11.9477 22.2515 11.5 21.1493 11.5 20Z" fill="#A259FF"/>
<path d="M11.5 11.3333C11.5 10.1846 11.9473 9.08296 12.7436 8.2704C13.5398 7.45784 14.6199 7.0009 15.7465 7H19.9963V15.6667H15.7498C14.6227 15.6667 13.5417 15.2101 12.7447 14.3975C11.9477 13.5848 11.5 12.4826 11.5 11.3333Z" fill="#F24E1E"/>
<path d="M20.001 7H24.2508C25.3779 7 26.4588 7.45655 27.2558 8.2692C28.0528 9.08186 28.5006 10.1841 28.5006 11.3333C28.5006 12.4826 28.0528 13.5848 27.2558 14.3975C26.4588 15.2101 25.3779 15.6667 24.2508 15.6667H20.001V7Z" fill="#FF7262"/>
<path d="M28.5006 20C28.5006 21.1493 28.0528 22.2515 27.2558 23.0641C26.4588 23.8768 25.3779 24.3333 24.2508 24.3333C23.1237 24.3333 22.0427 23.8768 21.2457 23.0641C20.4487 22.2515 20.001 21.1493 20.001 20C20.001 18.8507 20.4487 17.7485 21.2457 16.9359C22.0427 16.1232 23.1237 15.6667 24.2508 15.6667C25.3779 15.6667 26.4588 16.1232 27.2558 16.9359C28.0528 17.7485 28.5006 18.8507 28.5006 20Z" fill="#1ABCFE"/>
</svg>
