<svg width="162" height="80" viewBox="0 0 162 80" fill="none" xmlns="http://www.w3.org/2000/svg">
<path d="M54.0061 48.5467C54.0061 49.2125 54.3507 49.5455 55.0399 49.5455C55.7556 49.5455 56.352 49.4174 56.8291 49.1613L56.6303 53.5019C55.358 54.5006 53.9265 55 52.3361 55C49.3407 55 47.7105 53.886 47.4454 51.6581C45.8549 53.886 43.7078 55 41.004 55C38.3267 55 36.5905 54.411 35.7952 53.233C35.2651 52.4904 35 51.6453 35 50.6978C35 49.7503 35.0795 48.8796 35.2386 48.0858L37.4652 35.9859H44.2247L42.3559 46.2036C42.2764 46.6645 42.2366 47.1255 42.2366 47.5864C42.2366 48.8156 42.9523 49.4302 44.3837 49.4302C45.5766 49.4302 46.5309 49.0333 47.2466 48.2394L49.513 35.9859H56.2725L54.0458 48.0858C54.0193 48.2394 54.0061 48.3931 54.0061 48.5467Z" fill="#381DDB"/>
<path d="M77.9519 48.5467C77.9519 49.2125 78.2965 49.5455 78.9857 49.5455C79.7014 49.5455 80.2978 49.4174 80.7749 49.1613L80.5761 53.5019C79.3038 54.5006 77.8723 55 76.2819 55C73.366 55 71.7491 53.9757 71.431 51.927C70.1056 53.9757 68.1573 55 65.586 55C61.2387 55 59.0651 53.1946 59.0651 49.5839C59.0651 48.9693 59.1314 48.2907 59.2639 47.548L60.0989 43.0538C60.523 40.749 61.4906 38.9181 63.0015 37.5608C64.5389 36.178 66.6596 35.4866 69.3634 35.4866C71.0333 35.4866 72.3587 35.8323 73.3395 36.5237L75.3674 25.3073H82.1666L77.9916 48.0858C77.9651 48.2394 77.9519 48.3931 77.9519 48.5467ZM66.1824 46.7029C66.1294 46.9334 66.1029 47.2535 66.1029 47.6633C66.1029 48.073 66.3017 48.4827 66.6993 48.8924C67.0969 49.2766 67.7596 49.4686 68.6874 49.4686C69.6417 49.4686 70.4634 49.1101 71.1526 48.3931L72.3455 41.9398C72.0539 41.2996 71.3647 40.9795 70.2779 40.9795C68.2368 40.9795 67.0439 41.927 66.6993 43.822L66.1824 46.7029Z" fill="#381DDB"/>
<path d="M92.3891 49.5455C92.9987 49.5455 93.5421 49.4174 94.0193 49.1613L93.8205 53.5019C92.5746 54.5006 91.1565 55 89.566 55C87.1538 55 85.5898 54.4622 84.8741 53.3867C84.397 52.6697 84.1584 51.9142 84.1584 51.1204C84.1584 50.3009 84.2114 49.5839 84.3175 48.9693L86.7032 35.9859H93.4626L91.236 48.0858C91.2095 48.2394 91.1962 48.3803 91.1962 48.5083C91.1962 49.1997 91.5938 49.5455 92.3891 49.5455ZM87.4984 29.7247C87.4984 28.0858 87.8695 26.895 88.6117 26.1524C89.3804 25.3841 90.56 25 92.1505 25C94.3771 25 95.4905 25.9475 95.4905 27.8425C95.4905 29.4558 95.1061 30.6338 94.3374 31.3764C93.5952 32.1191 92.4156 32.4904 90.7986 32.4904C88.5985 32.4904 87.4984 31.5685 87.4984 29.7247Z" fill="#381DDB"/>
<path d="M116.345 54.4622H108.949L106.126 49.1229L101.354 54.4622H93.9587L102.547 45.0128L97.3782 35.717H104.893L107.597 40.9795L112.249 35.717H119.764L111.136 45.0512L116.345 54.4622Z" fill="#381DDB"/>
<path d="M119.008 52.2343C119.008 50.5954 119.379 49.4046 120.121 48.662C120.863 47.8937 122.043 47.5096 123.66 47.5096C125.887 47.5096 127 48.4571 127 50.3521C127 51.9654 126.616 53.1434 125.847 53.886C125.105 54.6287 123.925 55 122.308 55C120.108 55 119.008 54.0781 119.008 52.2343Z" fill="#381DDB"/>
</svg>
