<svg width="92" height="30" viewBox="0 0 92 30" fill="none" xmlns="http://www.w3.org/2000/svg">
<path d="M19.0061 23.5467C19.0061 24.2125 19.3507 24.5455 20.0399 24.5455C20.7556 24.5455 21.352 24.4174 21.8291 24.1613L21.6303 28.5019C20.358 29.5006 18.9265 30 17.3361 30C14.3407 30 12.7105 28.886 12.4454 26.6581C10.8549 28.886 8.70779 30 6.004 30C3.32672 30 1.59046 29.411 0.795233 28.233C0.265078 27.4904 0 26.6453 0 25.6978C0 24.7503 0.0795232 23.8796 0.23857 23.0858L2.46522 10.9859H9.2247L7.3559 21.2036C7.27638 21.6645 7.23661 22.1255 7.23661 22.5864C7.23661 23.8156 7.95232 24.4302 9.38374 24.4302C10.5766 24.4302 11.5309 24.0333 12.2466 23.2394L14.513 10.9859H21.2725L19.0458 23.0858C19.0193 23.2394 19.0061 23.3931 19.0061 23.5467Z" fill="white"/>
<path d="M42.9519 23.5467C42.9519 24.2125 43.2965 24.5455 43.9857 24.5455C44.7014 24.5455 45.2978 24.4174 45.7749 24.1613L45.5761 28.5019C44.3038 29.5006 42.8723 30 41.2819 30C38.366 30 36.7491 28.9757 36.431 26.927C35.1056 28.9757 33.1573 30 30.586 30C26.2387 30 24.0651 28.1946 24.0651 24.5839C24.0651 23.9693 24.1314 23.2907 24.2639 22.548L25.0989 18.0538C25.523 15.749 26.4906 13.9181 28.0015 12.5608C29.5389 11.178 31.6596 10.4866 34.3634 10.4866C36.0333 10.4866 37.3587 10.8323 38.3395 11.5237L40.3674 0.307297H47.1666L42.9916 23.0858C42.9651 23.2394 42.9519 23.3931 42.9519 23.5467ZM31.1824 21.7029C31.1294 21.9334 31.1029 22.2535 31.1029 22.6633C31.1029 23.073 31.3017 23.4827 31.6993 23.8924C32.0969 24.2766 32.7596 24.4686 33.6874 24.4686C34.6417 24.4686 35.4634 24.1101 36.1526 23.3931L37.3455 16.9398C37.0539 16.2996 36.3647 15.9795 35.2779 15.9795C33.2368 15.9795 32.0439 16.927 31.6993 18.822L31.1824 21.7029Z" fill="white"/>
<path d="M57.3891 24.5455C57.9987 24.5455 58.5421 24.4174 59.0193 24.1613L58.8205 28.5019C57.5746 29.5006 56.1565 30 54.566 30C52.1538 30 50.5898 29.4622 49.8741 28.3867C49.397 27.6697 49.1584 26.9142 49.1584 26.1204C49.1584 25.3009 49.2114 24.5839 49.3175 23.9693L51.7031 10.9859H58.4626L56.236 23.0858C56.2095 23.2394 56.1962 23.3803 56.1962 23.5083C56.1962 24.1997 56.5938 24.5455 57.3891 24.5455ZM52.4984 4.72471C52.4984 3.08579 52.8695 1.89501 53.6117 1.15237C54.3804 0.384123 55.56 0 57.1505 0C59.3771 0 60.4905 0.947504 60.4905 2.84251C60.4905 4.45583 60.1061 5.6338 59.3374 6.37644C58.5952 7.11908 57.4156 7.4904 55.7986 7.4904C53.5985 7.4904 52.4984 6.5685 52.4984 4.72471Z" fill="white"/>
<path d="M81.3445 29.4622H73.9488L71.1258 24.1229L66.3544 29.4622H58.9587L67.5472 20.0128L62.3782 10.717H69.8932L72.597 15.9795L77.2491 10.717H84.764L76.1357 20.0512L81.3445 29.4622Z" fill="white"/>
<path d="M84.0079 27.2343C84.0079 25.5954 84.379 24.4046 85.1212 23.662C85.8635 22.8937 87.0431 22.5096 88.66 22.5096C90.8867 22.5096 92 23.4571 92 25.3521C92 26.9654 91.6156 28.1434 90.8469 28.886C90.1047 29.6287 88.9251 30 87.3081 30C85.108 30 84.0079 29.0781 84.0079 27.2343Z" fill="white"/>
</svg>
